<?xml version="1.0" encoding="UTF-8" standalone="no"?>
<!-- Created with Inkscape (http://www.inkscape.org/) -->

<svg
   width="190.00029mm"
   height="156mm"
   viewBox="0 0 190.00029 156"
   version="1.1"
   id="svg8"
   inkscape:version="1.2.2 (732a01da63, 2022-12-09)"
   sodipodi:docname="cover_transparant_circle_icons.svg"
   inkscape:export-filename="D:\mooiman\home\text\deltares\huisstijl\report_new\pictures\cover_transparant_circle.png"
   inkscape:export-xdpi="96"
   inkscape:export-ydpi="96"
   xmlns:inkscape="http://www.inkscape.org/namespaces/inkscape"
   xmlns:sodipodi="http://sodipodi.sourceforge.net/DTD/sodipodi-0.dtd"
   xmlns:xlink="http://www.w3.org/1999/xlink"
   xmlns="http://www.w3.org/2000/svg"
   xmlns:svg="http://www.w3.org/2000/svg"
   xmlns:rdf="http://www.w3.org/1999/02/22-rdf-syntax-ns#"
   xmlns:cc="http://creativecommons.org/ns#"
   xmlns:dc="http://purl.org/dc/elements/1.1/">
  <defs
     id="defs2">
    <linearGradient
       inkscape:collect="always"
       id="linearGradient888">
      <stop
         style="stop-color:#0dbaee;stop-opacity:0.89999998"
         offset="0"
         id="stop884" />
      <stop
         style="stop-color:#0dbaee;stop-opacity:0"
         offset="1"
         id="stop886" />
    </linearGradient>
    <linearGradient
       inkscape:collect="always"
       xlink:href="#linearGradient888"
       id="linearGradient890"
       x1="37.794922"
       y1="782.36133"
       x2="695.92847"
       y2="123.85095"
       gradientUnits="userSpaceOnUse"
       gradientTransform="matrix(0.26458333,0,0,0.2172371,0,3.0420876)" />
  </defs>
  <sodipodi:namedview
     id="base"
     pagecolor="#ffffff"
     bordercolor="#666666"
     borderopacity="1.0"
     inkscape:pageopacity="0.0"
     inkscape:pageshadow="2"
     inkscape:zoom="0.98994949"
     inkscape:cx="165.66502"
     inkscape:cy="365.17015"
     inkscape:document-units="mm"
     inkscape:current-layer="layer1"
     showgrid="true"
     inkscape:window-width="1920"
     inkscape:window-height="1013"
     inkscape:window-x="-9"
     inkscape:window-y="-9"
     inkscape:window-maximized="1"
     fit-margin-top="0"
     fit-margin-left="0"
     fit-margin-right="0"
     fit-margin-bottom="0"
     inkscape:snap-grids="false"
     inkscape:pagecheckerboard="0"
     inkscape:showpageshadow="2"
     inkscape:deskcolor="#d1d1d1">
    <inkscape:grid
       type="xygrid"
       id="grid815"
       originx="-9.9999107"
       originy="-90.000221" />
  </sodipodi:namedview>
  <metadata
     id="metadata5">
    <rdf:RDF>
      <cc:Work
         rdf:about="">
        <dc:format>image/svg+xml</dc:format>
        <dc:type
           rdf:resource="http://purl.org/dc/dcmitype/StillImage" />
      </cc:Work>
    </rdf:RDF>
  </metadata>
  <g
     inkscape:label="Layer 1"
     inkscape:groupmode="layer"
     id="layer1"
     transform="translate(-9.9999063,-16.999996)">
    <path
       style="fill:url(#linearGradient890);fill-opacity:1;fill-rule:evenodd;stroke:none;stroke-width:0.958977;stroke-linecap:butt;stroke-linejoin:miter;stroke-miterlimit:4;stroke-dasharray:none;stroke-dashoffset:0;stroke-opacity:1"
       d="M 9.9999063,16.999996 V 173 H 200.00019 V 16.999996 Z M 108.30967,25.263492 A 84.999998,69.789557 0 0 1 180.79361,63.410241 84.999998,69.789557 0 0 1 144.13125,156.95415 84.999998,69.789557 0 0 1 29.885513,127.66533 l -1.335834,-2.16007 A 84.999998,69.789557 0 0 1 67.184528,32.497657 84.999998,69.789557 0 0 1 108.30967,25.263492 Z"
       id="rect817"
       inkscape:connector-curvature="0"
       inkscape:export-xdpi="96"
       inkscape:export-ydpi="96" />
    <g
       id="g2372"
       transform="matrix(0.12391169,0,0,0.12279883,19.108975,153.17054)">
      <path
         d="M 26.8,67 A 40.2,40.2 0 1 0 67,26.8 40.2,40.2 0 0 0 26.8,67 Z M 61,32 h 0.4 C 57,36.3 55,42.45 67.5,39.75 81,36.9 94.6,36.5 86.4,46 c -3.6,4.2 1.25,2.75 4.6,3.15 1.3,0.15 7.6,0.7 5.9,3.6 -13.15,-1.3 -38.3,11.5 -44.95,26 l -0.6,-0.55 c 0.7,-4.35 5.1,-14 13.05,-20.4 C 73.75,50.35 77.15,44.5 65.2,46.35 44.25,49.55 53.9,36 61,32 Z m 21.8,30.2 c 17.1,-6.05 18.2,0.5 14.2,3.35 -3.8,2.7 -12.7,7.75 -5.5,7.8 5.85,0 8.25,4.85 -1.9,15.15 A 31.67,31.67 0 0 1 66.6,98 34.15,34.15 0 0 1 59.1,97.15 V 96.7 c 21.35,1.75 28.15,-13 14.65,-14 -10.85,-0.85 -10.3,-13.65 9,-20.5 z m 42.3,4.7 c 0,8.35 4.5,14 12.85,14 5.5,0 10,-2.15 11.75,-8.3 l -5.15,-1.3 a 6.15,6.15 0 0 1 -6.4,5 c -4.05,0 -6.75,-2.6 -7.15,-8.15 h 18.7 c 0.5,-10.35 -4.35,-15.1 -11.75,-15.1 -7.6,0 -12.85,5 -12.85,13.8 z m 12.65,-9.4 c 3.7,0 5.85,2.3 5.95,6.9 h -12.6 c 0.55,-4.75 3,-6.9 6.65,-6.9 z m 17.55,22.9 h 6 V 62.2 a 7,7 0 0 1 6.25,-4.15 c 2.95,0 4.95,1.8 4.95,5.35 v 17 h 6 V 63.05 c 0,-6.3 -3.45,-9.95 -8.85,-9.95 a 9.38,9.38 0 0 0 -8.55,4.95 V 53.6 h -5.8 z M 183.8,67 c 0,8.7 4,14 10.95,14 a 10.25,10.25 0 0 0 8.05,-4 v 3.4 h 6 V 53.6 h -6 v 3.45 a 10.18,10.18 0 0 0 -8.05,-3.95 c -6.75,0 -10.95,5 -10.95,13.85 z m 6,0 c 0,-5.5 2.45,-9 6.7,-9 a 7,7 0 0 1 6.3,3.75 V 72.3 a 6.77,6.77 0 0 1 -6.2,3.7 c -4.15,0 -6.8,-3.4 -6.8,-9 z m 26,13.4 h 6 v -3.35 a 10.44,10.44 0 0 0 8,3.85 c 6.9,0 11,-5.25 11,-14 0,-8.75 -4.2,-13.85 -11,-13.85 a 10.18,10.18 0 0 0 -8,3.95 V 43.4 h -6 z m 19,-13.4 c 0,5.55 -2.65,9 -6.8,9 a 6.82,6.82 0 0 1 -6.2,-3.5 V 61.8 a 7,7 0 0 1 6.3,-3.75 c 4.25,0 6.7,3.45 6.7,9 z m 11.6,13.4 h 6 v -37 h -6 z m 13,0 h 6 V 53.6 h -6 z m -0.8,-33.7 a 3.8,3.8 0 1 0 3.8,-3.8 3.8,3.8 0 0 0 -3.8,3.8 z m 13.8,33.7 h 6 V 62.2 a 7,7 0 0 1 6.25,-4.15 c 3,0 5,1.8 5,5.35 v 17 h 6 V 63.05 c 0,-6.3 -3.45,-9.95 -8.85,-9.95 a 9.38,9.38 0 0 0 -8.55,4.95 V 53.6 h -5.8 z m 28.5,-14.6 c 0,7.6 4.1,12.65 10.35,12.65 a 9.93,9.93 0 0 0 8.25,-4.3 v 4.2 c 0,4.1 -2.2,6.45 -6.5,6.45 -3.35,0 -6.25,-1.4 -7.05,-4.9 L 301,81.55 c 1.45,4.8 5.5,7.35 11.95,7.35 7.9,0 12.55,-4.4 12.55,-10.65 V 53.6 h -6 v 3.85 a 10,10 0 0 0 -8.2,-4.35 c -6.25,0 -10.4,5 -10.4,12.7 z m 6,0 c 0,-4.8 2.2,-7.8 6.1,-7.8 a 7.55,7.55 0 0 1 6.5,4 v 7.6 a 7.38,7.38 0 0 1 -6.5,4 c -3.8,0 -6.1,-2.8 -6.1,-7.7 z m 32.2,1.2 c 0,8.7 4,14 10.95,14 a 10.25,10.25 0 0 0 8.05,-4 v 3.4 h 6 v -37 h -6 v 13.65 a 10.18,10.18 0 0 0 -8.05,-3.95 c -6.75,0 -10.95,5 -10.95,13.85 z m 6,0 c 0,-5.5 2.45,-9 6.7,-9 a 7,7 0 0 1 6.3,3.75 V 72.3 a 6.77,6.77 0 0 1 -6.2,3.7 c -4.15,0 -6.8,-3.4 -6.8,-9 z m 24.6,-0.1 c 0,8.35 4.5,14 12.85,14 5.5,0 9.95,-2.15 11.75,-8.3 l -5.15,-1.3 a 6.15,6.15 0 0 1 -6.4,5 c -4.05,0 -6.75,-2.6 -7.15,-8.15 h 18.7 c 0.5,-10.35 -4.35,-15.1 -11.75,-15.1 -7.6,0 -12.85,5 -12.85,13.8 z m 12.65,-9.4 c 3.7,0 5.85,2.3 5.95,6.9 h -12.6 c 0.55,-4.75 3,-6.9 6.65,-6.9 z m 17.55,22.9 h 6 v -37 h -6 z m 10.15,-22.1 h 4.15 v 13.55 c 0,6.65 3,9.05 9.1,9.05 a 12,12 0 0 0 4.05,-0.75 L 426.2,75.7 a 4.21,4.21 0 0 1 -2.45,0.8 c -2.4,0 -3.55,-1 -3.55,-4.85 V 58.3 h 6.25 V 53.6 H 420.2 V 43.4 h -5.8 v 10.2 h -4.35 z M 430.3,67 c 0,8.7 4.05,14 10.95,14 a 10.25,10.25 0 0 0 8.05,-4 v 3.4 h 6 V 53.6 h -6 v 3.45 a 10.18,10.18 0 0 0 -8.05,-3.95 c -6.75,0 -10.95,5 -10.95,13.85 z m 6,0 c 0,-5.5 2.45,-9 6.7,-9 a 7,7 0 0 1 6.3,3.75 V 72.3 a 6.77,6.77 0 0 1 -6.2,3.7 c -4.15,0 -6.8,-3.4 -6.8,-9 z m 34,13.4 h 6 v -37 h -6 z m 13,0 h 6 V 53.6 h -6 z m -0.8,-33.7 a 3.8,3.8 0 1 0 3.8,-3.8 3.8,3.8 0 0 0 -3.8,3.8 z m 15,33.7 h 6 V 58.3 h 6.1 v -4.7 h -6.1 v -1.1 c 0,-3.5 1.3,-5.3 4.5,-5.3 a 6.4,6.4 0 0 1 2.4,0.45 l 0.7,-4.25 A 14.31,14.31 0 0 0 507.65,43 c -6.3,0 -10.1,3 -10.1,9.5 v 1.1 h -4.1 v 4.7 h 4.05 z m 13.9,-13.5 c 0,8.35 4.5,14 12.85,14 5.5,0 10,-2.15 11.75,-8.3 l -5.15,-1.3 a 6.15,6.15 0 0 1 -6.4,5 c -4.05,0 -6.75,-2.6 -7.15,-8.15 H 536 c 0.5,-10.35 -4.35,-15.1 -11.75,-15.1 -7.6,0 -12.85,5 -12.85,13.8 z m 12.65,-9.4 c 3.7,0 5.85,2.3 6,6.9 H 517.4 c 0.6,-4.75 3,-6.9 6.65,-6.9 z"
         style="fill:#ffffff"
         id="path2361" />
      <rect
         width="562.79999"
         height="134"
         style="fill:none"
         id="rect2363"
         x="0"
         y="0" />
    </g>
  </g>
</svg>
