<?xml version="1.0" encoding="UTF-8" standalone="no"?>
<!-- Created with Inkscape (http://www.inkscape.org/) -->

<svg
   xmlns:dc="http://purl.org/dc/elements/1.1/"
   xmlns:cc="http://creativecommons.org/ns#"
   xmlns:rdf="http://www.w3.org/1999/02/22-rdf-syntax-ns#"
   xmlns:svg="http://www.w3.org/2000/svg"
   xmlns="http://www.w3.org/2000/svg"
   xmlns:sodipodi="http://sodipodi.sourceforge.net/DTD/sodipodi-0.dtd"
   xmlns:inkscape="http://www.inkscape.org/namespaces/inkscape"
   id="svg2985"
   version="1.1"
   inkscape:version="0.91 r13725"
   width="178.911"
   height="109.98499"
   xml:space="preserve"
   sodipodi:docname="deltares_namelogo.svg"><metadata
     id="metadata2991"><rdf:RDF><cc:Work
         rdf:about=""><dc:format>image/svg+xml</dc:format><dc:type
           rdf:resource="http://purl.org/dc/dcmitype/StillImage" /><dc:title></dc:title></cc:Work></rdf:RDF></metadata><defs
     id="defs2989"><clipPath
       clipPathUnits="userSpaceOnUse"
       id="clipPath3001"><path
         d="M 0,1397.62 0,0 l 2394.58,0 0,1397.62"
         id="path3003"
         inkscape:connector-curvature="0" /></clipPath></defs><sodipodi:namedview
     pagecolor="#ffffff"
     bordercolor="#666666"
     borderopacity="1"
     objecttolerance="10"
     gridtolerance="10"
     guidetolerance="10"
     inkscape:pageopacity="0"
     inkscape:pageshadow="2"
     inkscape:window-width="1920"
     inkscape:window-height="1028"
     id="namedview2987"
     showgrid="true"
     inkscape:zoom="4"
     inkscape:cx="74.776478"
     inkscape:cy="42.995409"
     inkscape:window-x="-8"
     inkscape:window-y="-8"
     inkscape:window-maximized="1"
     inkscape:current-layer="g2997"
     fit-margin-top="1"
     fit-margin-left="1"
     fit-margin-right="1"
     fit-margin-bottom="1"
     inkscape:showpageshadow="false"
     units="px"><inkscape:grid
       type="xygrid"
       id="grid4193"
       originx="-87.7885"
       originy="-31.999982" /></sodipodi:namedview><g
     id="g2993"
     inkscape:groupmode="layer"
     inkscape:label="deltares_merk_pantone"
     transform="matrix(1.25,0,0,-1.25,-87.0365,140.85611)"><g
       id="g2995"
       transform="scale(0.1,0.1)"><g
         id="g2997"><path
           sodipodi:nodetypes="ccczcscccc"
           inkscape:connector-curvature="0"
           id="path3039"
           style="fill:#008ac2;fill-opacity:1;fill-rule:nonzero;stroke:none"
           d="m 1717.4008,539.0413 c -153.4763,-54.33298 -157.874,-155.74976 -72.0883,-162.49864 107.2498,-8.43131 53.4988,-124.83261 -115.8637,-111.15228 0,0 -1.5997,0.16486 -1.7967,-1.37731 -0.1971,-1.54218 1.7967,-2.13381 1.7967,-2.13381 19.0837,-4.50665 38.9541,-6.91026 59.3995,-6.91026 71.1098,0 134.4531,27.04394 182.0614,75.41579 80.6113,81.91352 61.679,120.26241 15.1499,120.54585 -57.3115,0.35504 13.1932,40.4368 43.493,61.79194 31.6717,22.34767 23.3301,74.30931 -112.1518,26.31872" /><path
           inkscape:connector-curvature="0"
           id="path3041"
           style="fill:#96b7c5;fill-opacity:1;fill-rule:nonzero;stroke:none"
           d="m 1124.0217,890.65083 c 0,0 -20.9093,-9.94832 -57.1097,-9.94832 -37.5319,0 -55.7381,18.46738 -55.7381,55.92866 l 103.4573,0 c 14.0707,0 22.5938,2.47019 22.5938,15.89835 l 0,7.51344 c 0,49.48844 -26.0635,89.72354 -84.4947,89.72354 -60.02477,0 -93.79338,-45.4397 -93.79338,-106.86253 0,-71.26318 36.22972,-102.70483 100.94478,-102.70483 41.2739,0 64.14,10.54746 64.14,10.54746 l 0,39.90423 z m -112.0106,80.88974 c 2.7435,24.21265 17.9136,39.92743 39.3878,39.92743 22.5333,0 34.3244,-14.89777 34.3244,-39.92743 l -73.7122,0 z m 164.0469,-65.53505 c 0,-46.7681 14.1211,-65.80638 52.6617,-65.80638 18.4986,0 34.4756,5.60204 34.4756,5.60204 l 0,37.93535 c 0,0 -11.317,-2.51356 -17.6917,-2.51356 -10.9842,0 -17.8531,5.27928 -17.8531,25.8971 l 0,210.92193 -29.0592,0 c -14.1816,0 -22.5333,-2.4813 -22.5333,-16.2796 l 0,-195.75688 z M 704.292,844.67855 c 0,0 36.91762,-4.47941 75.96349,-4.47941 88.61196,0 149.69382,51.83051 149.69382,145.13069 0,95.49297 -53.3798,133.51907 -137.59809,133.51907 -23.40371,0 -44.02961,0 -65.77813,-1.1095 -13.69949,-0.7867 -22.28109,-2.4611 -22.28109,-16.2695 l 0,-256.79135 z m 52.55977,229.03325 c 8.55033,0.817 19.51537,1.0692 31.65851,1.0692 62.2055,0 85.39236,-35.0002 85.39236,-93.29211 0,-64.69586 -37.24543,-96.68117 -88.42638,-96.68117 -10.75625,0 -21.47316,0.80792 -28.62449,1.93055 l 0,186.97353 z M 1988.2033,844.147 c 12.6182,-2.29368 27.4151,-3.94786 41.9195,-3.94786 54.689,0 89.4572,27.04797 89.4572,66.35811 0,64.98332 -82.3866,50.73915 -82.3866,83.17433 0,12.69892 9.6831,20.64712 30.078,20.64712 6.5663,0 12.8704,-0.5346 18.3978,-0.5346 12.0433,0 20.2537,2.7032 20.2537,21.7061 l 0,14.6557 c -12.1744,1.8963 -24.8935,3.5606 -36.4426,3.5606 -56.6962,0 -85.3015,-29.4022 -85.3015,-64.43667 0,-68.00423 81.0753,-47.89073 81.0753,-83.41036 0,-13.15179 -13.0116,-21.76869 -32.6803,-21.76869 -15.3214,0 -30.8647,2.72638 -43.2308,6.0287 l -1.1397,-42.03248 z m -330.1616,0.53155 52.006,0 0,122.46834 c 0,27.54725 7.3732,38.04731 27.1731,38.04731 l 3.1167,0 c 14.5952,0 22.5232,2.4409 22.5232,16.1283 l 0,24.0664 -31.4094,0 c -58.3303,0 -73.4096,-35.444 -73.4096,-78.58899 l 0,-122.12136 z m -362.8318,61.32697 c 0,-46.7681 13.526,-65.80638 58.411,-65.80638 13.6874,0 28.5044,1.96989 41.8085,5.60204 l 0,39.81446 c -7.585,-2.19482 -18.5894,-3.27004 -25.3776,-3.27004 -17.2681,0 -23.5823,7.51747 -23.5823,33.38432 l 0,89.46428 26.3762,0 c 14.1312,0 22.5837,2.4409 22.5837,16.1283 l 0,24.0664 -48.9599,0 0,72.6531 -28.9281,0 c -14.3732,0 -22.3315,-2.4813 -22.3315,-16.2796 l 0,-195.75688 z m 258.9206,-19.82604 c 0,0 -10.1268,-5.47697 -32.771,-5.47697 -33.9512,0 -47.5176,21.75659 -47.5176,59.51441 0,49.79002 25.0246,69.09258 54.7597,69.09258 9.9049,0 17.3689,-0.8473 25.5289,-2.7536 l 0,-120.37642 z m 51.2697,152.26992 c 0,0 -24.4598,11.3171 -72.0479,11.3171 -71.1099,0 -113.2008,-47.0738 -113.2008,-115.05782 0,-61.39353 35.7667,-94.50954 97.1633,-94.50954 56.4541,0 88.0854,15.20843 88.0854,15.20843 l 0,183.04183 z m 333.8835,-147.79857 c 0,0 -21.1211,-9.94832 -57.1905,-9.94832 -37.4512,0 -56.0103,18.46738 -56.0103,55.92866 l 103.7296,0 c 14.0908,0 22.3416,2.47019 22.3416,15.89835 l 0,7.51344 c 0,49.48844 -25.7609,89.72354 -84.5249,89.72354 -59.6718,0 -93.8247,-45.4397 -93.8247,-106.86253 0,-71.26318 36.6039,-102.70483 101.1979,-102.70483 41.153,0 64.2813,10.54746 64.2813,10.54746 l 0,39.90423 z m -112.283,80.88974 c 2.8343,24.21265 18.1759,39.92743 39.2769,39.92743 22.9064,0 34.6875,-14.89777 34.6875,-39.92743 l -73.9644,0" /><path
           sodipodi:nodetypes="cscczcccsccsc"
           inkscape:connector-curvature="0"
           id="path3043"
           style="fill:#96b7c5;fill-opacity:1;fill-rule:nonzero;stroke:none"
           d="m 1544.4676,778.69465 c -56.5046,-31.21672 -133.1116,-139.21294 33.0233,-113.58313 95.0854,14.66881 68.104,-31.96211 -6.1932,-91.01558 -63.0911,-50.17633 -98.0811,-127.26244 -103.3866,-161.71895 0,0 -0.7562,-3.61702 1.139,-5.33636 1.8954,-1.71936 3.2789,0.90435 3.2789,0.90435 53.0247,114.89134 252.677,216.643 356.8101,206.35174 13.7277,22.87922 -36.5031,27.44235 -46.9023,28.60432 -26.5376,2.95535 -64.7856,-8.27396 -36.1803,24.84205 65.0277,75.28265 -43.614,72.13062 -150.3192,49.44809 -99.5437,-21.15039 -85.0099,30.74 -48.0924,61.50347 0.5358,0.53267 0.2313,0.80182 -0.7448,0.8125 -0.9138,0.01 -2.4325,-0.8125 -2.4325,-0.8125" /><path
           inkscape:connector-curvature="0"
           id="path3041-1"
           style="fill:#96b7c5;fill-opacity:1;fill-rule:nonzero;stroke:none"
           d="m 2732.409,1437.28 c 0,0 36.601,-4.441 75.312,-4.441 87.852,0 148.41,51.386 148.41,143.886 0,94.674 -52.922,132.374 -136.418,132.374 -23.203,0 -43.652,0 -65.214,-1.1 -13.582,-0.78 -22.09,-2.44 -22.09,-16.13 z m 52.109,227.069 c 8.477,0.81 19.348,1.06 31.387,1.06 61.672,0 84.66,-34.7 84.66,-92.492 0,-64.141 -36.926,-95.852 -87.668,-95.852 -10.664,0 -21.289,0.801 -28.379,1.914 z"
           sodipodi:nodetypes="cssscsccssscc" /><path
           inkscape:connector-curvature="0"
           id="path3041-1-2"
           style="fill:#96b7c5;fill-opacity:1;fill-rule:nonzero;stroke:none"
           d="m 3147.4253,898.88922 c 0,0 4.4147,36.60418 4.3869,75.31517 -0.063,87.85201 -51.4927,148.37301 -143.9927,148.30651 -94.674,-0.068 -132.336,-53.0171 -132.2759,-136.51312 0.017,-23.203 0.031,-43.65199 1.1468,-65.2132 0.7898,-13.58143 2.4559,-22.08824 16.1459,-22.07839 z m -227.1064,51.94574 c -0.8161,8.47641 -1.074,19.34723 -1.0826,31.38623 -0.044,61.67201 34.6391,84.68491 92.4312,84.72651 64.1409,0.046 95.8785,-36.8571 95.915,-87.59911 0.01,-10.66399 -0.7857,-21.28957 -1.8936,-28.38037 z"
           sodipodi:nodetypes="cssscsccssscc" /></g></g></g></svg>